<?xml version="1.0" standalone="no"?><!DOCTYPE svg PUBLIC "-//W3C//DTD SVG 1.1//EN" "http://www.w3.org/Graphics/SVG/1.1/DTD/svg11.dtd">
<svg x="0.0000mm" y="0.0000mm" width="52.3880mm" height="21.1670mm" viewBox="0.0000 0.0000 52.3880 21.1670" version="1.1" xmlns="http://www.w3.org/2000/svg" shape-rendering="crispEdges">
<title>TBarCode - 11.15.0.16817</title>
<desc>BarCode licensed to MEM:TEC-IT Datenverarbeitung GmbH Internal License</desc>
<g fill="rgb(0%,0%,0%)">
</g>
<g fill="rgb(100%,100%,100%)">
<rect x="0.0000" y="0.0000" width="52.3880" height="21.1670" />
</g>
<g fill="rgb(0%,0%,0%)">
</g>
<g fill="rgb(0%,0%,0%)">
<rect x="0.0000" y="0.0000" width="0.5292" height="15.2874" />
<rect x="1.0583" y="0.0000" width="0.5292" height="15.2874" />
<rect x="2.1167" y="0.0000" width="1.5875" height="15.2874" />
<rect x="4.2334" y="0.0000" width="0.5292" height="15.2874" />
<rect x="6.3501" y="0.0000" width="0.5292" height="15.2874" />
<rect x="7.4084" y="0.0000" width="0.5292" height="15.2874" />
<rect x="8.4667" y="0.0000" width="1.5875" height="15.2874" />
<rect x="11.6418" y="0.0000" width="1.5875" height="15.2874" />
<rect x="14.8168" y="0.0000" width="1.5875" height="15.2874" />
<rect x="16.9335" y="0.0000" width="0.5292" height="15.2874" />
<rect x="17.9918" y="0.0000" width="0.5292" height="15.2874" />
<rect x="19.0502" y="0.0000" width="0.5292" height="15.2874" />
<rect x="21.1669" y="0.0000" width="0.5292" height="15.2874" />
<rect x="23.2836" y="0.0000" width="1.5875" height="15.2874" />
<rect x="26.4586" y="0.0000" width="0.5292" height="15.2874" />
<rect x="27.5169" y="0.0000" width="0.5292" height="15.2874" />
<rect x="28.5753" y="0.0000" width="1.5875" height="15.2874" />
<rect x="30.6920" y="0.0000" width="1.5875" height="15.2874" />
<rect x="33.8670" y="0.0000" width="1.5875" height="15.2874" />
<rect x="35.9837" y="0.0000" width="0.5292" height="15.2874" />
<rect x="37.0420" y="0.0000" width="0.5292" height="15.2874" />
<rect x="38.1004" y="0.0000" width="0.5292" height="15.2874" />
<rect x="40.2171" y="0.0000" width="0.5292" height="15.2874" />
<rect x="42.3337" y="0.0000" width="1.5875" height="15.2874" />
<rect x="45.5088" y="0.0000" width="0.5292" height="15.2874" />
<rect x="46.5671" y="0.0000" width="0.5292" height="15.2874" />
<rect x="47.6255" y="0.0000" width="1.5875" height="15.2874" />
<rect x="49.7421" y="0.0000" width="1.5875" height="15.2874" />
<rect x="51.8588" y="0.0000" width="0.5292" height="15.2874" />
</g>

</svg>
