<?xml version="1.0" encoding="utf-8"?>
<!-- Generator: Adobe Illustrator 26.0.1, SVG Export Plug-In . SVG Version: 6.00 Build 0)  -->
<svg version="1.1" id="Ebene_1" xmlns="http://www.w3.org/2000/svg" xmlns:xlink="http://www.w3.org/1999/xlink" x="0px" y="0px"
	 viewBox="0 0 493.3 221.9" style="enable-background:new 0 0 493.3 221.9;" xml:space="preserve">
<style type="text/css">
	.st0{fill-rule:evenodd;clip-rule:evenodd;fill:#1C3F84;}
	.st1{fill:#1C3F84;}
	.st2{fill-rule:evenodd;clip-rule:evenodd;fill:#FBB900;}
	.st3{fill-rule:evenodd;clip-rule:evenodd;fill:#00539F;}
	.st4{fill-rule:evenodd;clip-rule:evenodd;fill:#FFFFFF;}
	.st5{clip-path:url(#SVGID_00000040546637504418992020000008014604358530440068_);fill:#E32C2C;}
	.st6{fill:url(#SVGID_00000082327408146945454550000014553446351334018952_);}
	.st7{fill:url(#SVGID_00000134218570943025621780000017661385411451912624_);}
</style>
<g>
	<polygon class="st0" points="356.3,6.3 363.4,6.3 363.4,216.5 356.3,216.5 356.3,6.3 	"/>
	<path class="st1" d="M83.5,118.4h9.4l-4.3-17.8h-0.7L83.5,118.4L83.5,118.4z M67.1,134.6l12.3-43h17.7l12.1,43H96.9l-1.9-7.5H81.4
		l-2,7.5H67.1L67.1,134.6z"/>
	<polygon class="st0" points="114.7,134.6 114.7,91.7 126.2,91.7 126.2,107.8 141.2,107.8 141.2,91.7 152.7,91.7 152.7,124.6 
		159.6,124.7 172.4,124.7 172.4,134.6 151.8,134.6 151.8,134.6 141.2,134.6 141.2,117.9 126.2,117.9 126.2,134.6 114.7,134.6 	"/>
	<polygon class="st2" points="176.1,134.6 176.1,91.7 204.9,91.7 204.9,101.3 187.6,101.3 187.6,109.6 203.9,109.6 203.9,119 
		187.6,119 187.6,134.6 176.1,134.6 	"/>
	<path class="st2" d="M222.9,109.7v7.1c0,3.7,0.4,6,1.2,6.9c0.8,0.9,2.6,1.4,5.2,1.4h2.1c2.6,0,4.4-0.5,5.2-1.4
		c0.8-1,1.3-3.3,1.3-6.9v-7.1c0-3.7-0.4-6-1.3-6.9c-0.8-1-2.6-1.5-5.2-1.5h-2.1c-2.6,0-4.3,0.5-5.2,1.4
		C223.4,103.7,222.9,106,222.9,109.7L222.9,109.7z M211.2,108.7c0-6.5,1.2-11.1,3.7-13.7c2.4-2.6,6.7-3.9,12.8-3.9h5.7
		c6.1,0,10.4,1.3,12.8,3.9c2.5,2.6,3.7,7.1,3.7,13.6v8.9c0,6.5-1.2,11-3.7,13.6c-2.5,2.6-6.7,3.9-12.8,3.9h-5.7
		c-6.1,0-10.3-1.3-12.8-3.9c-2.4-2.6-3.7-7.1-3.7-13.7V108.7L211.2,108.7z"/>
	<polygon class="st2" points="316.7,91.7 333.5,91.7 333.5,134.6 322.3,134.6 322.3,103.1 313.7,127.1 302.2,127.1 293.5,102.7 
		293.5,134.6 282.3,134.6 282.3,91.7 299.1,91.7 307.9,115.2 316.7,91.7 	"/>
	<path class="st2" d="M253.5,112.4h6.3c1.9,0,3.2-0.3,3.9-1c0.7-0.7,1-1.9,1-3.7V106c0-1.8-0.4-3.1-1.1-3.8c-0.7-0.7-2-1-3.9-1h-6.3
		v-9.6h5.6c6.6,0,11.1,0.9,13.6,2.6c2.5,1.7,3.7,4.8,3.7,9.2v3.5c0,2.9-0.7,5.2-2.1,6.8c-1.4,1.6-3.5,2.6-6.2,3
		c2.9,0.5,5,1.4,6.3,2.9c1.3,1.4,2,3.5,2,6.2v8.9h-11.8v-7.7c0-1.8-0.4-3.1-1.1-3.8c-0.7-0.7-2-1-3.9-1h-6.2V112.4L253.5,112.4z"/>
	<path class="st3" d="M378.7,211.8l-3.5-1.2c0.9-1.2,2.7-4.4,3.1-5.4c0.4-0.9,0.5-2,0.8-2.9c0.3-0.9,1.1-1.9,1.5-3
		c0.3-0.9,0.4-2,0.7-2.9c0.3-0.9,1-1.9,1.3-2.8c0.3-0.9,0.3-2,0.6-2.9c0.3-0.9,1-1.9,1.2-2.8c0.2-0.8,0.2-1.7,0.4-2.5
		c0.2-0.8,0.8-1.6,1.1-2.4c0.2-0.8,0.2-1.8,0.4-2.6c0.2-0.8,0.8-1.6,1-2.5c0.2-0.8,0.1-1.6,0.3-2.4c0.2-0.7,0.8-1.5,0.9-2.3
		c0.2-0.8,0.1-1.6,0.2-2.4c0.1-0.7,0.7-1.5,0.9-2.3c0.2-0.7,0-1.5,0.1-2.1c0.1-0.8,0.7-1.7,0.9-2.5c0.2-0.9,0.1-1.9,0.3-2.8
		c0.1-0.6,0.6-1.4,0.8-2.1c0.2-1,0.1-2.2,0.3-3.2c0.2-1,0.7-2,0.9-3c0.2-1,0.1-2,0.2-2.9c0.1-0.9,0.6-1.8,0.8-2.8
		c0.2-1,0.1-2.2,0.2-3.2c0.1-1,0.6-2,0.8-3c0.2-1,0-2.1,0.1-3.1c0.1-1,0.4-2,0.5-3c0.1-1,0.2-2.5,0.3-3.4c0.1-1.2,0.4-2.3,0.5-3.5
		c0.1-1.1,0.1-2.2,0.1-3.2c0-1,0.3-2.4,0.2-3.6l3.3-0.1c0,1,0.1,2.2,0.1,3.2c0,1-0.4,2.2-0.5,3.2c0,0.3-0.1,0.4-0.1,0.7
		c0.3-0.4,0.4-0.6,0.8-0.7c0.3-0.1,0.4-0.3,1.1-0.3c0.9,0,0.8,0.8,0.5,1c-0.2,0.1-0.8,0.3-1.4,0.8c-0.6,0.5-0.9,1.8-0.7,2.6
		c0.2,0.8,0.5,1.2,1.3,1.5c0.9,0.3,0.4-0.2,0.3-0.6c-0.2-0.9-0.6-1.4-0.2-2.7c0.1-0.5,0.5-0.7,1-0.7c0.4,0,1,0,1,0.8
		c0,0.7-0.7,0.5-0.7,0.8c-0.1,0.5-0.1,0.9,0.7,1.9c0.8,1,1.7,2.2,2.5,3.1c3.4,3.8,7.9,9.2,12.3,12.4c4.6,3.4,9,6.2,13.8,8.5
		c4.8,2.3,10.3,4.3,15.1,6.5c1.2,0.5,6.9,3,8.1,3.6c6.5,3.4,9.5,6.7,14.9,10c2.6,1.6,6,2.3,9.7,2.7c5.2,0.5,8.9-2.3,8.7-1.2
		c0.2,1.2-2.2,3.2-4.3,4.9c-1.2,1-3.3,2-6.7,3.4c-6.9,2.9-13,5.4-20.9,6.5c-6.6,0.9-12.6,1-19.6,1c-7,0-14.1-0.1-21.1,0.7
		c-8.1,0.9-15.4,2.8-23.2,5.8l-1.5,0.8c0,0-4.7,1.9-5.1,3.2c-0.3,0.8,0.3,0.9,0.2,1.2c-0.1,0.4-0.9,0.8-1.2,0.6
		c-0.3-0.1-0.9-0.7-0.8-1.3c0.1-1.5,1.7-2.9,1.7-2.9c-0.9-0.1-2.1,0.7-2.1,0.7l-0.8,1.6c0,0.1,0.2,1.5,0.8,2
		c0.2,0.2,0.7,0.6,0.3,1.1c-0.2,0.3-0.8,0.2-1.2-0.2c-0.7-0.8-0.8-0.8-1-1c-0.2,0.6-0.4,1.3-0.5,1.6
		C380.8,208.4,379.9,210.5,378.7,211.8L378.7,211.8z M383.8,200.6c0.1-0.6,0.2-1.3,0.4-1.8c0.4-1,1.1-1.7,1.4-2.6
		c0.2-0.8,0.2-2,0.6-3.1c0.3-0.9,1-1.7,1.3-2.6c0.2-0.9,0.2-2.1,0.5-3c0.2-0.9,0.9-1.6,1.1-2.4c0.2-0.8,0.1-1.9,0.3-2.8
		c0.2-0.8,0.9-1.5,1-2.2c0.2-0.8,0.1-1.8,0.3-2.6c0.2-0.8,0.8-1.4,1-2.1c0.1-0.7,0-1.7,0.2-2.5c0.2-0.9,0.8-1.6,0.9-2.4
		c0.1-0.6-0.1-1.5,0.1-2.2c0.2-0.7,0.8-1.4,0.9-2.2c0.1-0.8,0-1.8,0.1-2.5c0.2-0.7,0.8-1.5,0.9-2.4c0.1-0.9,0.2-1.9,0.3-2.6
		c0.2-1,0.6-2.1,0.8-3c0.1-1,0.1-2.1,0.3-3c0.2-1,0.6-2,0.7-2.9c0.1-0.9,0.1-2,0.2-3c0.2-1,0.6-2.1,0.6-3c0.1-1,0.1-2.1,0.2-3
		c0.1-1,0.5-2.1,0.6-3.1c0.1-1,0-2.1,0.2-3.1c0.1-0.5,0.1-0.8,0.3-1.3c0.6,0.8,1.6,1.4,2.6,1.9c0.5,0.3,0.4,1.5,0.4,2.9
		c0,9.6-1.5,20.2-3.6,29.5c0,0-2.8,14.7-7.3,23.7c-1.9,3.9-3.6,9.4-4.6,9.5L383.8,200.6L383.8,200.6z"/>
	<path class="st4" d="M409.1,162.7l5.3,1.1l-2.5,12l3,0.7l-0.9,4.1l-8.3-1.8L409.1,162.7L409.1,162.7z M420.8,165.3l10.1,2.2l-1,4.1
		l-6.4,6.7l5.6,1.2l-0.9,4.2l-11.4-2.4l0.9-4l6.7-6.8l-4.5-1L420.8,165.3L420.8,165.3z M434.4,168l10.9,2.3c0.9,0.4,1.7,1.1,2.2,1.7
		c0.8,1,1,1.4,1.2,2.4c0.4,1.6-0.3,3.7-1.6,5c-0.6,0.7-1.3,0.9-2.8,1.4l2.1,6.6l-6.4-1.3l-1.7-5.6c-0.1-0.3-0.6-0.5-0.8-0.4
		l-1.1,5.2l-5.6-1.2L434.4,168L434.4,168z M439.2,173.4l3.5,0.7c0.5,0.5,0.9,0.8,0.8,1.7c-0.2,1-0.8,1.2-1.5,1.4l-3.5-0.8
		L439.2,173.4L439.2,173.4z"/>
	<path class="st4" d="M398.1,124.3c0.5-1,1.4-2.5,1.4-1.4c0,1.1,0,0.9-0.5,1.8c-0.6,1-1.7,1.6-1.9,1.5
		C396.9,126.2,397.5,125.3,398.1,124.3L398.1,124.3z"/>
	<path class="st4" d="M397.6,130c0.5-0.8,0.7-1.2,1-0.7c0.3,0.5,0.2,0.4-0.3,1.1c-0.5,0.8-1.1,0.9-1.2,0.8
		C396.9,131.1,397.2,130.9,397.6,130L397.6,130z"/>
	<path class="st4" d="M396.7,137.1c0.5-1,1.4-2.5,1.4-1.4c0,1.1,0,0.9-0.5,1.8c-0.6,1-1.7,1.6-1.9,1.5
		C395.5,139,396.2,138.1,396.7,137.1L396.7,137.1z"/>
	<path class="st4" d="M395.9,143.8c0.5-1,1.4-2.5,1.4-1.3c0,1.1,0,0.9-0.6,1.8c-0.6,1-1.7,1.6-1.9,1.5
		C394.7,145.6,395.4,144.8,395.9,143.8L395.9,143.8z"/>
	<path class="st4" d="M394.8,150.1c0.5-1,1.4-2.5,1.4-1.3c0,1.1,0,0.9-0.6,1.8c-0.6,1-1.7,1.6-1.9,1.5
		C393.6,152,394.3,151.1,394.8,150.1L394.8,150.1z"/>
	<path class="st4" d="M393.8,155.8c0.6-1,1.5-2.4,1.5-1.3c-0.1,1.1,0,0.9-0.6,1.8c-0.6,0.9-1.8,1.6-1.9,1.4
		C392.5,157.6,393.3,156.8,393.8,155.8L393.8,155.8z"/>
	<path class="st4" d="M392.6,161.8c0.6-0.9,1.6-2.3,1.5-1.2c-0.1,1.1-0.1,0.9-0.7,1.8c-0.7,0.9-1.9,1.4-2,1.3
		C391.2,163.5,391.9,162.7,392.6,161.8L392.6,161.8z"/>
	<path class="st4" d="M391.4,167.1c0.7-0.9,1.8-2.3,1.6-1.1c-0.2,1.1-0.1,0.9-0.8,1.7c-0.7,0.9-1.9,1.4-2.1,1.2
		C389.9,168.7,390.7,168,391.4,167.1L391.4,167.1z"/>
	<path class="st4" d="M390.2,172.3c0.7-0.9,1.7-2.3,1.6-1.1c-0.2,1.1-0.1,0.9-0.8,1.7c-0.7,0.9-1.9,1.4-2.1,1.2
		C388.7,174,389.5,173.3,390.2,172.3L390.2,172.3z"/>
	<path class="st4" d="M388.7,177.6c0.7-0.9,1.7-2.3,1.6-1.1c-0.2,1.1-0.1,0.9-0.8,1.7c-0.7,0.9-1.9,1.4-2.1,1.2
		C387.2,179.3,388,178.5,388.7,177.6L388.7,177.6z"/>
	<path class="st4" d="M387.2,183.1c0.7-0.9,1.7-2.3,1.6-1.1c-0.2,1.1-0.1,0.9-0.8,1.7c-0.7,0.9-1.9,1.4-2.1,1.2
		C385.7,184.8,386.5,184,387.2,183.1L387.2,183.1z"/>
	<path class="st4" d="M385.6,188.9c0.7-0.9,1.8-2.2,1.6-1.1c-0.2,1.1-0.1,0.9-0.8,1.7c-0.7,0.9-2,1.3-2.1,1.2
		C384.1,190.5,384.9,189.8,385.6,188.9L385.6,188.9z"/>
	<path class="st4" d="M383.9,194.7c0.7-0.9,1.8-2.2,1.6-1.1c-0.2,1.1-0.1,0.9-0.8,1.7c-0.7,0.9-2,1.3-2.1,1.2
		C382.4,196.3,383.3,195.6,383.9,194.7L383.9,194.7z"/>
	<path class="st4" d="M381.8,200.2c0.7-0.9,1.9-2.2,1.6-1.1c-0.2,1.1-0.3,1.1-0.9,1.7c-0.6,0.6-0.9,0.5-1.3,0.4
		C380.9,201.2,381.1,201.1,381.8,200.2L381.8,200.2z"/>
	<path class="st4" d="M379.3,207.2c0.8-0.8,2-2.1,1.7-1c-0.3,1.1-0.2,0.9-1,1.6c-0.8,0.8-2.1,1.1-2.2,1
		C377.7,208.7,378.6,208.1,379.3,207.2L379.3,207.2z"/>
	<path class="st0" d="M378.7,211.8l-3.5-1.2c0.9-1.2,2.7-4.4,3.1-5.4c0.4-0.9,0.5-2,0.8-2.9c0.3-0.9,1.1-1.9,1.5-3
		c0.3-0.9,0.4-2,0.7-2.9c0.3-0.9,1-1.9,1.3-2.8c0.3-0.9,0.3-2,0.6-2.9c0.3-0.9,1-1.9,1.2-2.8c0.2-0.8,0.2-1.7,0.4-2.5
		c0.2-0.8,0.8-1.6,1.1-2.4c0.2-0.8,0.2-1.8,0.4-2.6c0.2-0.8,0.8-1.6,1-2.5c0.2-0.8,0.1-1.6,0.3-2.4c0.2-0.7,0.8-1.5,0.9-2.3
		c0.2-0.8,0.1-1.6,0.2-2.4c0.1-0.7,0.7-1.5,0.9-2.3c0.2-0.7,0-1.5,0.1-2.1c0.1-0.8,0.7-1.7,0.9-2.5c0.2-0.9,0.1-1.9,0.3-2.8
		c0.1-0.6,0.6-1.4,0.8-2.1c0.2-1,0.1-2.2,0.3-3.2c0.2-1,0.7-2,0.9-3c0.2-1,0.1-2,0.2-2.9c0.1-0.9,0.6-1.8,0.8-2.8
		c0.2-1,0.1-2.2,0.2-3.2c0.1-1,0.6-2,0.8-3c0.2-1,0-2.1,0.1-3.1c0.1-1,0.4-2,0.5-3c0.1-1,0.2-2.5,0.3-3.4c0.1-1.2,0.4-2.3,0.5-3.5
		c0.1-1.1,0.1-2.2,0.1-3.2c0-1,0.3-2.4,0.2-3.6l3.3-0.1c0,1,0.1,2.2,0.1,3.2c0,1-0.4,2.2-0.5,3.2c0,0.3-0.1,0.4-0.1,0.7
		c0.3-0.4,0.4-0.6,0.8-0.7c0.3-0.1,0.4-0.3,1.1-0.3c0.9,0,0.8,0.8,0.5,1c-0.2,0.1-0.8,0.3-1.4,0.8c-0.6,0.5-0.9,1.8-0.7,2.6
		c0.2,0.8,0.5,1.2,1.3,1.5c0.9,0.3,0.4-0.2,0.3-0.6c-0.2-0.9-0.6-1.4-0.2-2.7c0.1-0.5,0.5-0.7,1-0.7c0.4,0,1,0,1,0.8
		c0,0.7-0.7,0.5-0.7,0.8c-0.1,0.5-0.1,0.9,0.7,1.9c0.8,1,1.7,2.2,2.5,3.1c3.4,3.8,7.9,9.2,12.3,12.4c4.6,3.4,9,6.2,13.8,8.5
		c4.8,2.3,10.3,4.3,15.1,6.5c1.2,0.5,6.9,3,8.1,3.6c6.5,3.4,9.5,6.7,14.9,10c2.6,1.6,6,2.3,9.7,2.7c5.2,0.5,8.9-2.3,8.7-1.2
		c0.2,1.2-2.2,3.2-4.3,4.9c-1.2,1-3.3,2-6.7,3.4c-6.9,2.9-13,5.4-20.9,6.5c-6.6,0.9-12.6,1-19.6,1c-7,0-14.1-0.1-21.1,0.7
		c-8.1,0.9-15.4,2.8-23.2,5.8l-1.5,0.8c0,0-4.7,1.9-5.1,3.2c-0.3,0.8,0.3,0.9,0.2,1.2c-0.1,0.4-0.9,0.8-1.2,0.6
		c-0.3-0.1-0.9-0.7-0.8-1.3c0.1-1.5,1.7-2.9,1.7-2.9c-0.9-0.1-2.1,0.7-2.1,0.7l-0.8,1.6c0,0.1,0.2,1.5,0.8,2
		c0.2,0.2,0.7,0.6,0.3,1.1c-0.2,0.3-0.8,0.2-1.2-0.2c-0.7-0.8-0.8-0.8-1-1c-0.2,0.6-0.4,1.3-0.5,1.6
		C380.8,208.4,379.9,210.5,378.7,211.8L378.7,211.8z M383.8,200.6c0.1-0.6,0.2-1.3,0.4-1.8c0.4-1,1.1-1.7,1.4-2.6
		c0.2-0.8,0.2-2,0.6-3.1c0.3-0.9,1-1.7,1.3-2.6c0.2-0.9,0.2-2.1,0.5-3c0.2-0.9,0.9-1.6,1.1-2.4c0.2-0.8,0.1-1.9,0.3-2.8
		c0.2-0.8,0.9-1.5,1-2.2c0.2-0.8,0.1-1.8,0.3-2.6c0.2-0.8,0.8-1.4,1-2.1c0.1-0.7,0-1.7,0.2-2.5c0.2-0.9,0.8-1.6,0.9-2.4
		c0.1-0.6-0.1-1.5,0.1-2.2c0.2-0.7,0.8-1.4,0.9-2.2c0.1-0.8,0-1.8,0.1-2.5c0.2-0.7,0.8-1.5,0.9-2.4c0.1-0.9,0.2-1.9,0.3-2.6
		c0.2-1,0.6-2.1,0.8-3c0.1-1,0.1-2.1,0.3-3c0.2-1,0.6-2,0.7-2.9c0.1-0.9,0.1-2,0.2-3c0.2-1,0.6-2.1,0.6-3c0.1-1,0.1-2.1,0.2-3
		c0.1-1,0.5-2.1,0.6-3.1c0.1-1,0-2.1,0.2-3.1c0.1-0.5,0.1-0.8,0.3-1.3c0.6,0.8,1.6,1.4,2.6,1.9c0.5,0.3,0.4,1.5,0.4,2.9
		c0,9.6-1.5,20.2-3.6,29.5c0,0-2.8,14.7-7.3,23.7c-1.9,3.9-3.6,9.4-4.6,9.5L383.8,200.6L383.8,200.6z"/>
	<path class="st4" d="M409.1,162.7l5.3,1.1l-2.5,12l3,0.7l-0.9,4.1l-8.3-1.8L409.1,162.7L409.1,162.7z M420.8,165.3l10.1,2.2l-1,4.1
		l-6.4,6.7l5.6,1.2l-0.9,4.2l-11.4-2.4l0.9-4l6.7-6.8l-4.5-1L420.8,165.3L420.8,165.3z M434.4,168l10.9,2.3c0.9,0.4,1.7,1.1,2.2,1.7
		c0.8,1,1,1.4,1.2,2.4c0.4,1.6-0.3,3.7-1.6,5c-0.6,0.7-1.3,0.9-2.8,1.4l2.1,6.6l-6.4-1.3l-1.7-5.6c-0.1-0.3-0.6-0.5-0.8-0.4
		l-1.1,5.2l-5.6-1.2L434.4,168L434.4,168z M439.2,173.4l3.5,0.7c0.5,0.5,0.9,0.8,0.8,1.7c-0.2,1-0.8,1.2-1.5,1.4l-3.5-0.8
		L439.2,173.4L439.2,173.4z"/>
	<path class="st4" d="M398.1,124.3c0.5-1,1.4-2.5,1.4-1.4c0,1.1,0,0.9-0.5,1.8c-0.6,1-1.7,1.6-1.9,1.5
		C396.9,126.2,397.5,125.3,398.1,124.3L398.1,124.3z"/>
	<path class="st4" d="M397.6,130c0.5-0.8,0.7-1.2,1-0.7c0.3,0.5,0.2,0.4-0.3,1.1c-0.5,0.8-1.1,0.9-1.2,0.8
		C396.9,131.1,397.2,130.9,397.6,130L397.6,130z"/>
	<path class="st4" d="M396.7,137.1c0.5-1,1.4-2.5,1.4-1.4c0,1.1,0,0.9-0.5,1.8c-0.6,1-1.7,1.6-1.9,1.5
		C395.5,139,396.2,138.1,396.7,137.1L396.7,137.1z"/>
	<path class="st4" d="M395.9,143.8c0.5-1,1.4-2.5,1.4-1.3c0,1.1,0,0.9-0.6,1.8c-0.6,1-1.7,1.6-1.9,1.5
		C394.7,145.6,395.4,144.8,395.9,143.8L395.9,143.8z"/>
	<path class="st4" d="M394.8,150.1c0.5-1,1.4-2.5,1.4-1.3c0,1.1,0,0.9-0.6,1.8c-0.6,1-1.7,1.6-1.9,1.5
		C393.6,152,394.3,151.1,394.8,150.1L394.8,150.1z"/>
	<path class="st4" d="M393.8,155.8c0.6-1,1.5-2.4,1.5-1.3c-0.1,1.1,0,0.9-0.6,1.8c-0.6,0.9-1.8,1.6-1.9,1.4
		C392.5,157.6,393.3,156.8,393.8,155.8L393.8,155.8z"/>
	<path class="st4" d="M392.6,161.8c0.6-0.9,1.6-2.3,1.5-1.2c-0.1,1.1-0.1,0.9-0.7,1.8c-0.7,0.9-1.9,1.4-2,1.3
		C391.2,163.5,391.9,162.7,392.6,161.8L392.6,161.8z"/>
	<path class="st4" d="M391.4,167.1c0.7-0.9,1.8-2.3,1.6-1.1c-0.2,1.1-0.1,0.9-0.8,1.7c-0.7,0.9-1.9,1.4-2.1,1.2
		C389.9,168.7,390.7,168,391.4,167.1L391.4,167.1z"/>
	<path class="st4" d="M390.2,172.3c0.7-0.9,1.7-2.3,1.6-1.1c-0.2,1.1-0.1,0.9-0.8,1.7c-0.7,0.9-1.9,1.4-2.1,1.2
		C388.7,174,389.5,173.3,390.2,172.3L390.2,172.3z"/>
	<path class="st4" d="M388.7,177.6c0.7-0.9,1.7-2.3,1.6-1.1c-0.2,1.1-0.1,0.9-0.8,1.7c-0.7,0.9-1.9,1.4-2.1,1.2
		C387.2,179.3,388,178.5,388.7,177.6L388.7,177.6z"/>
	<path class="st4" d="M387.2,183.1c0.7-0.9,1.7-2.3,1.6-1.1c-0.2,1.1-0.1,0.9-0.8,1.7c-0.7,0.9-1.9,1.4-2.1,1.2
		C385.7,184.8,386.5,184,387.2,183.1L387.2,183.1z"/>
	<path class="st4" d="M385.6,188.9c0.7-0.9,1.8-2.2,1.6-1.1c-0.2,1.1-0.1,0.9-0.8,1.7c-0.7,0.9-2,1.3-2.1,1.2
		C384.1,190.5,384.9,189.8,385.6,188.9L385.6,188.9z"/>
	<path class="st4" d="M383.9,194.7c0.7-0.9,1.8-2.2,1.6-1.1c-0.2,1.1-0.1,0.9-0.8,1.7c-0.7,0.9-2,1.3-2.1,1.2
		C382.4,196.3,383.3,195.6,383.9,194.7L383.9,194.7z"/>
	<path class="st4" d="M381.8,200.2c0.7-0.9,1.9-2.2,1.6-1.1c-0.2,1.1-0.3,1.1-0.9,1.7c-0.6,0.6-0.9,0.5-1.3,0.4
		C380.9,201.2,381.1,201.1,381.8,200.2L381.8,200.2z"/>
	<path class="st4" d="M379.3,207.2c0.8-0.8,2-2.1,1.7-1c-0.3,1.1-0.2,0.9-1,1.6c-0.8,0.8-2.1,1.1-2.2,1
		C377.7,208.7,378.6,208.1,379.3,207.2L379.3,207.2z"/>
	<path class="st1" d="M9.3,154.3c0-3.6,0.7-6.1,2.2-7.5c1.5-1.4,4.1-2.1,7.9-2.1H23c3.5,0,6,0.6,7.7,1.8c1.6,1.2,2.5,3,2.5,5.5v1.2
		h-3.2v-0.3c0-1.9-0.5-3.3-1.5-4.1c-1-0.8-2.9-1.1-5.6-1.1h-2.5c-1.9,0-3.3,0.1-4.2,0.3c-0.8,0.2-1.6,0.6-2.2,1.1
		c-0.5,0.5-0.9,1.1-1.2,1.9c-0.2,0.8-0.3,2.2-0.3,4.2v8c0,2,0.1,3.4,0.3,4.2c0.2,0.8,0.6,1.4,1.2,1.9c0.6,0.5,1.3,0.9,2.1,1.1
		c0.8,0.2,2.2,0.3,4.2,0.3h2.5c1.8,0,3.1-0.1,3.8-0.3c0.7-0.2,1.4-0.5,1.9-1c0.5-0.4,0.9-1,1.1-1.8c0.2-0.7,0.3-2,0.3-3.8V162h-7.8
		v-2.9h11.1v4.7c0,3.6-0.7,6.1-2.2,7.5c-1.5,1.4-4.1,2.1-7.9,2.1h-3.6c-3.8,0-6.4-0.7-7.9-2.1c-1.5-1.4-2.2-3.9-2.2-7.5V154.3
		L9.3,154.3z"/>
	<path class="st1" d="M84.5,147.9h-9v11.3h9c2.3,0,3.9-0.3,4.6-0.9c0.7-0.6,1.1-1.6,1.1-3.1v-3.3c0-1.5-0.3-2.6-1.1-3.1
		C88.5,148.2,86.9,147.9,84.5,147.9L84.5,147.9z M72.4,173.2V145h12.7c3.2,0,5.3,0.5,6.5,1.4c1.2,0.9,1.8,2.6,1.8,5v4.3
		c0,1.5-0.3,2.6-0.9,3.5c-0.6,0.8-1.5,1.4-2.7,1.6c1.3,0.3,2.3,0.9,2.8,1.7c0.5,0.8,0.8,2.1,0.8,3.9v6.8h-3.3v-5.8
		c0-2-0.3-3.4-1-4.1c-0.6-0.7-1.9-1.1-3.7-1.1h-10v11H72.4L72.4,173.2z"/>
	<path class="st1" d="M132.9,145h3.1v18.5c0,1.8,0.1,3.1,0.3,3.8c0.2,0.7,0.5,1.3,1,1.7c0.5,0.5,1.1,0.8,1.8,1
		c0.7,0.2,1.9,0.3,3.6,0.3h3c1.7,0,2.9-0.1,3.7-0.3c0.7-0.2,1.3-0.5,1.8-1c0.5-0.4,0.8-1,1-1.7c0.2-0.7,0.3-2,0.3-3.8V145h3.1v18.9
		c0,3.6-0.7,6.1-2.1,7.5c-1.4,1.4-3.9,2.1-7.5,2.1h-3.4c-3.6,0-6.1-0.7-7.5-2.1c-1.4-1.4-2.1-3.9-2.1-7.5V145L132.9,145z"/>
	<path class="st1" d="M212.8,155.7v-4.1c0-1.4-0.3-2.3-1-2.8c-0.6-0.5-2-0.8-4.2-0.8h-8.7v11.3h8.7c2.1,0,3.5-0.3,4.1-0.8
		C212.4,157.9,212.8,157,212.8,155.7L212.8,155.7z M195.8,173.2V145h11.9c3.2,0,5.3,0.5,6.5,1.4c1.2,0.9,1.8,2.6,1.8,5v4.3
		c0,2.5-0.6,4.2-1.8,5.1c-1.2,1-3.4,1.4-6.6,1.4h-8.8v10.9H195.8L195.8,173.2z"/>
	<path class="st1" d="M271.8,155.7v-4.1c0-1.4-0.3-2.3-1-2.8c-0.6-0.5-2-0.8-4.2-0.8H258v11.3h8.7c2.1,0,3.5-0.3,4.1-0.8
		C271.5,157.9,271.8,157,271.8,155.7L271.8,155.7z M254.9,173.2V145h11.9c3.2,0,5.3,0.5,6.5,1.4c1.2,0.9,1.8,2.6,1.8,5v4.3
		c0,2.5-0.6,4.2-1.8,5.1c-1.2,1-3.4,1.4-6.6,1.4H258v10.9H254.9L254.9,173.2z"/>
	<polygon class="st1" points="313.9,173.2 313.9,145 333.7,145 333.7,147.9 317,147.9 317,157.2 333.2,157.2 333.2,160 317,160 
		317,170.2 333.7,170.2 333.7,173.2 313.9,173.2 	"/>
	<path class="st0" d="M5.4,121.4h11v0.4c0,1.6,0.4,2.6,1.2,3.2c0.8,0.6,2.3,0.9,4.4,0.9H25c1.8,0,3-0.2,3.7-0.7
		c0.7-0.5,1.1-1.3,1.1-2.5v-1.9c0-1-0.3-1.8-0.8-2.2c-0.6-0.4-1.8-0.8-3.8-1l-9.3-1c-3.5-0.4-6-1.5-7.6-3.3c-1.6-1.8-2.4-4.5-2.4-8
		v-2.7c0-2,0.3-3.8,1-5.4c0.6-1.6,1.6-2.6,2.8-3.6c1-0.9,2.3-1.5,3.8-1.8c0.3-0.1,0.7-0.2,1.2-0.2h16.5l0.1,0h39.8v9.6h-11v33.4
		H48.1v-33.4H20.3c-1.8,0-3,0.2-3,1.9v1.8c0,1.6,1.5,2.5,4.6,2.9l0,0l8.5,1c3.7,0.4,6.4,1.5,8.2,3.2c1.8,1.7,2.7,4.1,2.7,7.3v4.1
		c0,3.6-1.1,6.4-3.3,8.5c-2.2,2.1-5.2,3.2-8.9,3.2h-9.4c-5,0-8.7-0.9-10.9-2.6c-2.3-1.7-3.4-4.5-3.4-8.3V121.4L5.4,121.4z"/>
</g>
<g>
	<defs>
		<polygon id="SVGID_1_" points="291.2,76.2 313,76.2 313,15.8 291.2,15.8 291.2,76.2 		"/>
	</defs>
	<clipPath id="SVGID_00000057133543342730132400000004045617334014599072_">
		<use xlink:href="#SVGID_1_"  style="overflow:visible;"/>
	</clipPath>
	
		<rect x="228.4" y="13.2" style="clip-path:url(#SVGID_00000057133543342730132400000004045617334014599072_);fill:#E32C2C;" width="6.2" height="14.5"/>
</g>
<linearGradient id="SVGID_00000137811153957057036970000011976440420544759689_" gradientUnits="userSpaceOnUse" x1="283.2126" y1="40.1894" x2="305.0135" y2="40.1894">
	<stop  offset="0" style="stop-color:#1A1A1A"/>
	<stop  offset="0.5" style="stop-color:#FFFFFF"/>
	<stop  offset="1" style="stop-color:#1A1A1A"/>
</linearGradient>
<rect x="283.2" y="10" style="fill:url(#SVGID_00000137811153957057036970000011976440420544759689_);" width="21.8" height="60.4"/>
<path class="st3" d="M276.3,39.8c3.8,5.7,7.7,7.8,11.6,7c4.8-1,10.2-5.6,16.2-12.7l0,0c14.7-17.4,29.5-20.6,44.7-6.2l-6.9,7.3
	c-9.8-9.3-19.8-6.8-30,5.3l0,0c-7.3,8.9-14.6,14.6-21.9,16.2c-8.1,1.7-15.5-1.6-22-11.2L276.3,39.8L276.3,39.8z"/>
<linearGradient id="SVGID_00000038396118353747864490000002044293942151919805_" gradientUnits="userSpaceOnUse" x1="313.4497" y1="33.742" x2="335.2507" y2="33.742">
	<stop  offset="0" style="stop-color:#1A1A1A"/>
	<stop  offset="0.5" style="stop-color:#FFFFFF"/>
	<stop  offset="1" style="stop-color:#1A1A1A"/>
</linearGradient>
<rect x="313.4" y="3.5" style="fill:url(#SVGID_00000038396118353747864490000002044293942151919805_);" width="21.8" height="60.4"/>
</svg>
